<svg width="24" height="24" viewBox="0 0 24 24" fill="none" xmlns="http://www.w3.org/2000/svg">
<path d="M22 12.8598C22 15.1498 20.82 17.1798 19 18.4598L17.66 21.4098C17.35 22.0798 16.45 22.2098 15.98 21.6398L14.5 19.8598C12.08 19.8598 9.92001 18.7898 8.57001 17.1198L9.5 15.9998C13.64 15.9998 17 12.8698 17 8.99982C17 7.94982 16.75 6.95982 16.3 6.06982C19.57 6.81982 22 9.5798 22 12.8598Z" stroke="#44BDB6" stroke-width="1.2" stroke-linecap="round" stroke-linejoin="round"/>
<path d="M9.5 1.40039C12.7356 1.40039 15.558 3.18802 16.835 5.79883C17.326 6.77003 17.5996 7.85293 17.5996 9C17.5996 13.1481 14.0887 16.4513 9.78711 16.5928L9.03125 17.5029V17.5039L8.48047 18.1641L8.47949 18.166C7.7245 19.0653 6.28896 18.8674 5.7959 17.8018L5.79395 17.7979L4.51758 14.9883C2.63286 13.6025 1.40039 11.4453 1.40039 9C1.40039 4.75999 5.06864 1.40039 9.5 1.40039ZM7 8.40039C6.66863 8.40039 6.40039 8.66863 6.40039 9C6.40039 9.33137 6.66863 9.59961 7 9.59961H12C12.3314 9.59961 12.5996 9.33137 12.5996 9C12.5996 8.66863 12.3314 8.40039 12 8.40039H7Z" fill="#44BDB6"/>
</svg>
