<svg width="24" height="24" viewBox="0 0 24 24" fill="none" xmlns="http://www.w3.org/2000/svg">
<path d="M11.4873 1.41919C12.4969 1.39554 13.5411 1.65252 14.3643 2.22876L20.543 6.55786C21.1378 6.9725 21.6453 7.61779 22.0029 8.30298C22.3605 8.98813 22.5996 9.77368 22.5996 10.5002V17.7805C22.5993 20.4207 20.4421 22.5901 17.79 22.5901H6.20996C3.55703 22.5901 1.40083 20.4199 1.40039 17.7708V10.3606C1.40039 9.67935 1.61576 8.93252 1.93848 8.27466C2.26127 7.61677 2.72008 6.98741 3.26074 6.56665L8.65137 2.36743V2.36646C9.44615 1.74829 10.4777 1.44286 11.4873 1.41919ZM12 14.3909C11.6686 14.3909 11.4004 14.6591 11.4004 14.9905V17.9905C11.4006 18.3216 11.6688 18.5901 12 18.5901C12.3312 18.5901 12.5994 18.3216 12.5996 17.9905V14.9905C12.5996 14.6591 12.3314 14.3909 12 14.3909Z" fill="#44BDB6"/>
</svg>
