<svg width="24" height="24" viewBox="0 0 24 24" fill="none" xmlns="http://www.w3.org/2000/svg">
<path d="M12.0068 16.0352C13.7179 16.0352 15.3947 16.4687 16.6348 17.2979V17.2988C17.4693 17.8605 17.9311 18.5186 18.0898 19.1523C16.4474 20.556 14.327 21.4003 12 21.4004C9.67222 21.4003 7.55087 20.5559 5.9082 19.1514C6.06684 18.5187 6.52928 17.8617 7.36133 17.3008C8.61232 16.4698 10.2955 16.0353 12.0068 16.0352ZM12 1.40039C17.8542 1.40039 22.5996 6.14578 22.5996 12C22.5996 15.9469 20.4407 19.3865 17.2412 21.2109C17.9265 20.819 18.5651 20.3538 19.1445 19.8232C19.2849 19.6947 19.3558 19.5066 19.3359 19.3174C19.2125 18.1572 18.4808 17.0941 17.3047 16.3027L17.3037 16.3018L17.0205 16.1221C15.5831 15.2541 13.7816 14.8359 12.0068 14.8359C10.1138 14.8361 8.18687 15.3121 6.69824 16.3008L6.69434 16.3027C5.51862 17.0941 4.78648 18.1574 4.66309 19.3174C4.64322 19.5066 4.71416 19.6947 4.85449 19.8232C5.43389 20.3538 6.07251 20.819 6.75781 21.2109C3.55869 19.3864 1.40039 15.9466 1.40039 12C1.40039 6.14578 6.14578 1.40039 12 1.40039ZM12 5.63086C9.84756 5.63101 8.12012 7.37066 8.12012 9.51074C8.12052 11.6047 9.77748 13.3088 11.8594 13.3799C11.8909 13.381 11.9228 13.3799 11.9541 13.376C11.9677 13.3743 11.9859 13.3731 12.0039 13.373C12.0122 13.3731 12.0196 13.3737 12.0254 13.374H12.0352C12.0699 13.379 12.1056 13.3811 12.1406 13.3799C14.2255 13.3086 15.8678 11.602 15.8799 9.51367V9.51074C15.8799 7.36946 14.1412 5.63101 12 5.63086ZM12 6.83008C13.386 6.83022 14.5285 7.88625 14.666 9.23633L14.6797 9.51074C14.6694 10.9574 13.5369 12.1267 12.1074 12.1797C12.0356 12.1748 11.9621 12.1748 11.8916 12.1797C10.4583 12.1262 9.31974 10.9531 9.31934 9.51074C9.31934 8.03101 10.5127 6.83023 12 6.83008Z" fill="#44BDB6"/>
</svg>
